<svg aria-hidden="true" style="position: absolute; width: 0; height: 0; overflow: hidden;" version="1.1" xmlns="http://www.w3.org/2000/svg" xmlns:xlink="http://www.w3.org/1999/xlink"><defs>
<symbol id="icon-right" viewBox="0 0 54 32"><path fill="#ff6b09" style="fill: var(--color1, #ff6b09)" d="M2 14c-1.105 0-2 0.895-2 2s0.895 2 2 2v0-4zM53.414 17.414c0.362-0.362 0.586-0.862 0.586-1.414s-0.224-1.052-0.586-1.414l-12.728-12.728c-0.364-0.377-0.874-0.611-1.439-0.611-1.105 0-2 0.895-2 2 0 0.565 0.234 1.074 0.61 1.438l0.001 0.001 11.314 11.314-11.314 11.314c-0.347 0.359-0.561 0.849-0.561 1.389 0 1.105 0.895 2 2 2 0.54 0 1.030-0.214 1.39-0.562l-0.001 0.001 12.728-12.728zM2 18h50v-4h-50v4z"></path></symbol>
<symbol id="icon-left" viewBox="0 0 54 32"><path fill="#ff6b09" style="fill: var(--color1, #ff6b09)" d="M52 14c1.105 0 2 0.895 2 2s-0.895 2-2 2v0-4zM0.586 17.414c-0.362-0.362-0.586-0.862-0.586-1.414s0.224-1.052 0.586-1.414l12.728-12.728c0.357-0.335 0.838-0.541 1.368-0.541 1.105 0 2 0.895 2 2 0 0.53-0.206 1.012-0.543 1.37l0.001-0.001-11.312 11.314 11.314 11.314c0.377 0.364 0.611 0.874 0.611 1.439 0 1.105-0.895 2-2 2-0.565 0-1.074-0.234-1.438-0.61l-0.001-0.001-12.728-12.728zM52 18h-50v-4h50v4z"></path></symbol>
<symbol id="icon-vk" viewBox="0 0 32 32"><path fill="#436eab" style="fill: var(--color2, #436eab)" d="M27.541 18.46c1.060 1.037 2.181 2.012 3.133 3.153 0.421 0.507 0.819 1.029 1.123 1.618 0.432 0.836 0.042 1.757-0.709 1.807l-4.661-0.002c-1.202 0.099-2.161-0.384-2.969-1.206-0.645-0.658-1.243-1.358-1.863-2.037-0.246-0.281-0.521-0.527-0.824-0.736l-0.015-0.010c-0.637-0.413-1.189-0.287-1.553 0.378-0.37 0.675-0.454 1.422-0.491 2.175-0.050 1.098-0.382 1.387-1.485 1.437-2.356 0.111-4.593-0.245-6.67-1.435-1.833-1.049-3.253-2.528-4.489-4.203-2.407-3.26-4.251-6.844-5.907-10.529-0.373-0.83-0.1-1.276 0.815-1.292 1.521-0.030 3.042-0.028 4.564-0.002 0.619 0.009 1.027 0.363 1.266 0.947 0.822 2.023 1.829 3.949 3.093 5.732 0.336 0.476 0.679 0.949 1.168 1.284 0.541 0.37 0.953 0.247 1.206-0.354 0.162-0.382 0.233-0.794 0.269-1.202 0.121-1.408 0.137-2.812-0.075-4.213-0.13-0.876-0.623-1.442-1.495-1.607-0.446-0.085-0.38-0.251-0.164-0.505 0.374-0.439 0.727-0.713 1.429-0.713h5.269c0.829 0.164 1.013 0.537 1.127 1.372l0.004 5.852c-0.010 0.323 0.161 1.282 0.743 1.495 0.465 0.153 0.772-0.22 1.052-0.515 1.262-1.339 2.162-2.922 2.965-4.56 0.357-0.72 0.665-1.468 0.962-2.215 0.221-0.555 0.565-0.828 1.191-0.816l5.070 0.004c0.151 0 0.303 0.002 0.448 0.028 0.855 0.145 1.089 0.512 0.826 1.347-0.416 1.309-1.225 2.4-2.016 3.497-0.846 1.169-1.749 2.3-2.589 3.477-0.77 1.074-0.709 1.616 0.247 2.549z"></path></symbol>
<symbol id="icon-facebook-1" viewBox="0 0 32 32"><path fill="#436eab" d="M21.329 5.313h2.921V.225C23.746.156 22.013 0 19.994 0c-4.212 0-7.097 2.649-7.097 7.519V12H8.249v5.688h4.648V32h5.699V17.689h4.46l.708-5.688h-5.169V8.082c.001-1.644.444-2.769 2.735-2.769z"/></symbol>
</defs></svg>
