<svg xmlns="http://www.w3.org/2000/svg" viewBox="0 0 508 508" style="enable-background:new 0 0 508 508" xml:space="preserve"><path style="fill:#00abe3" d="M504 378.8c0 68.8-56.4 125.2-125.2 125.2H129.2C60.4 504 4 447.6 4 378.8V129.2C4 60.4 60 4 129.2 4h249.6C447.6 4 504 60.4 504 129.2v249.6z"/><path style="fill:#fff" d="M401.2 134c-12.4 7.2-26 12.4-40.8 15.2-11.6-12.4-28.4-20-46.8-20-35.2 0-64 28.4-64 63.2 0 4.8.4 9.6 1.6 14.4-53.2-2.8-100.4-27.6-132-66-5.6 9.2-8.8 20-8.8 31.6 0 22 11.6 41.2 28.8 52.4-10.4-.4-20.8-3.2-28.4-8v.8c0 30.4 21.6 56 50.8 61.6-5.2 1.6-11.2 2.4-17.2 2.4-4 0-8.4-.4-12-1.2 8 25.2 31.6 43.2 59.6 43.6-22 16.8-49.6 26.8-79.6 26.8-5.2 0-10.4-.4-15.2-.8 28.4 18 62 28.4 98 28.4 117.6 0 182-96 182-179.2v-8c12.4-8.8 23.2-20 32-32.8-11.6 5.2-24 8.4-36.8 10 14-7.6 24-20 28.8-34.4"/><path d="M378.8 508H129.2C58 508 0 450 0 378.8V129.2C0 58 58 0 129.2 0h249.6C450 0 508 58 508 129.2v249.6C508 450 450 508 378.8 508zM129.2 8C62.4 8 8 62.4 8 129.2v249.6C8 445.6 62.4 500 129.2 500h249.6c66.8 0 121.2-54.4 121.2-121.2V129.2C500 62.4 445.6 8 378.8 8H129.2z"/><path d="M370 484H138c-62 0-114.4-52.4-114.4-114.4V138C24 76 76 24 138 24h230.8c2.4 0 4 1.6 4 4s-1.6 4-4 4H138C80.4 32 32 80.4 32 138v232c0 57.6 48.8 106.4 106.4 106.4h232c57.6 0 106-48.8 106-106.4V258c0-2.4 1.6-4 4-4s4 1.6 4 4v112C484 432 432 484 370 484z"/><path d="M447.2 65.2c-1.2 0-2-.4-2.8-1.2-20.4-20.4-47.6-32-75.2-32-2.4 0-4-1.6-4-4s1.6-4 4-4c29.6 0 59.2 12.4 80.8 34.4 1.6 1.6 1.6 4 0 5.6-.8.8-2 1.2-2.8 1.2zM480 234c-2.4 0-4-1.6-4-4v-59.2c0-2.4 1.6-4 4-4s4 1.6 4 4V230c0 2.4-1.6 4-4 4zM377.6 203.6c-2.4 0-4-1.6-4-4v-8c0-1.2.4-2.8 1.6-3.6 8.4-6 16-12.8 22.8-20.8-8 2.4-16.4 4.4-24.8 5.2-2 .4-3.6-.8-4.4-2.8s0-3.6 1.6-4.8c12.4-7.2 22-18.8 26.4-32.8.8-2 2.8-3.2 5.2-2.4 2 .8 3.2 2.8 2.4 5.2-3.2 10-8.8 19.2-16.4 26.8 6.8-1.6 13.2-4 19.6-6.8 1.6-.8 3.6-.4 4.8 1.2 1.2 1.2 1.2 3.2.4 4.8-8.4 12.4-18.8 23.2-31.2 32.4v6c0 2.4-2 4.4-4 4.4z"/><path d="M195.2 382.8c-35.6 0-70.4-10-100.4-28.8-1.6-.8-2.4-2.8-1.6-4.8s2.4-2.8 4.4-2.8c30 3.6 59.2-3.6 83.2-19.2-24.4-4.4-44.8-21.6-52.4-45.6-.4-1.2 0-2.8.8-4s2.4-1.6 3.6-1.2c3.6.8 7.6 1.2 11.2 1.2-22.4-11.2-37.2-34-37.2-60v-.8c0-1.6.8-2.8 2-3.6s2.8-.8 4 0c3.6 2.4 8 4 12.4 5.2-12.4-12.4-19.6-29.2-19.6-46.4 0-12 3.2-23.6 9.2-33.6.8-1.2 2-2 3.2-2s2.4.4 3.2 1.6c30.8 37.2 75.6 60.4 124 64-.4-3.2-.8-6.8-.8-10 0-36.8 30.4-67.2 68-67.2 18 0 35.2 7.2 48 19.6 13.2-2.8 25.6-7.6 37.2-14.4 2-1.2 4.4-.4 5.6 1.6s.4 4.4-1.6 5.6c-13.2 7.6-27.2 12.8-42 15.6-1.2.4-2.8 0-3.6-1.2-11.2-12-27.2-18.8-44-18.8-33.2 0-60 26.4-60 59.2 0 4.4.4 9.2 1.6 13.6.4 1.2 0 2.4-.8 3.6s-2 1.6-3.2 1.6c-50.4-2.4-98-25.2-130.8-62.8-3.6 7.6-5.6 16-5.6 24.8 0 19.6 10.4 38 27.2 49.2 1.6.8 2 2.8 1.6 4.4-.4 1.6-2 2.8-4 2.8-8.4-.4-16.8-2-24-5.2 2.4 25.6 21.6 46.8 47.2 52 2 .4 3.2 2 3.2 3.6 0 2-1.2 3.6-2.8 4-7.6 2-16 2.8-24.4 2 9.6 20.8 30.4 34.4 53.6 34.8 1.6 0 3.2 1.2 3.6 2.8.4 1.6 0 3.2-1.2 4.4-23.2 18-51.2 27.6-80.4 27.6 25.2 12.8 52.8 19.6 81.6 19.6 61.2 0 113.2-26.8 146.4-75.6 1.2-2 3.6-2.4 5.6-1.2 2 1.2 2.4 3.6 1.2 5.6-33.6 51.2-88 79.2-152.4 79.2z"/></svg>