<svg aria-hidden="true" style="position: absolute; width: 0; height: 0; overflow: hidden;" version="1.1" xmlns="http://www.w3.org/2000/svg" xmlns:xlink="http://www.w3.org/1999/xlink">
<defs>
<symbol id="icon-vector-tel" viewBox="0 0 34 32">
<path fill="#ff6b09" style="fill: var(--color1, #ff6b09)" d="M4.901 0.003c-0.541 0.025-1.075 0.253-1.465 0.677l-2.728 2.969c0.003-0.008-0.010-0.008-0.088 0.101-0.040 0.053-0.072 0.113-0.095 0.179l-0.001 0.005c-1.112 3.501-0.365 7.353 1.448 11.016 1.816 3.665 4.712 7.17 8.035 10.048 3.325 2.877 7.075 5.127 10.653 6.243 3.576 1.117 7.043 1.101 9.613-0.741 0.029-0.021 0.054-0.044 0.077-0.067l0-0c0.067-0.067 0.071-0.076 0.059-0.066l0.010-0.013 2.718-2.956c0.339-0.37 0.547-0.865 0.547-1.408 0-0.613-0.264-1.164-0.685-1.546l-0.002-0.002-6.449-5.799c-0.377-0.336-0.876-0.542-1.424-0.542-0.617 0-1.173 0.261-1.564 0.679l-0.001 0.001-2.917 3.173c-2.368-0.679-4.392-1.829-6.341-3.581-1.947-1.752-3.296-3.638-4.202-5.905l2.915-3.173c0.339-0.37 0.546-0.864 0.546-1.408 0-0.613-0.265-1.165-0.686-1.547l-0.002-0.002-6.447-5.802c-0.374-0.336-0.872-0.542-1.417-0.542-0.038 0-0.075 0.001-0.112 0.003l0.005-0zM4.963 1.304c0.009-0 0.020-0.001 0.032-0.001 0.208 0 0.397 0.080 0.538 0.21l-0.001-0 6.447 5.8c0.333 0.298 0.355 0.775 0.054 1.103l-3.225 3.505c-0.106 0.116-0.171 0.271-0.171 0.441 0 0.081 0.015 0.158 0.041 0.229l-0.001-0.005c0.979 2.641 2.558 4.807 4.729 6.76 2.173 1.954 4.5 3.304 7.252 4.019 0.050 0.013 0.107 0.021 0.165 0.021 0.194 0 0.369-0.082 0.491-0.214l0-0 3.227-3.505c0.143-0.16 0.351-0.261 0.582-0.261 0.206 0 0.394 0.080 0.533 0.211l-0-0 6.451 5.799c0.162 0.14 0.265 0.346 0.265 0.575 0 0.205-0.082 0.392-0.214 0.528l0-0-2.695 2.931c-2.11 1.497-5.081 1.581-8.408 0.542-3.34-1.044-6.966-3.202-10.174-5.979-3.21-2.779-6.003-6.169-7.719-9.634-1.699-3.431-2.316-6.895-1.381-9.95l2.634-2.863c0.137-0.151 0.329-0.249 0.545-0.261l0.002-0z"></path>
</symbol>
</defs>
</svg>
